# xmcd CD database file
#
# Track frame offsets:
#	150
#	13721
#	25235
#	39374
#	49840
#	61527
#	72093
#	86633
#	92485
#	101044
#	110635
#	122201
#	136364
#	149948
#	161238
#	171331
#
# Disc length: 2446 seconds
#
# Revision: 0
# Processed by: cddbd v1.5.2PL0 Copyright (c) Steve Scherf et al.
# Submitted via: CDex 1.70beta2
#
DISCID=e3098c10
DTITLE=Various Artist - Just Country (Nights)
DYEAR=1900
DGENRE=Country
TTITLE0=Talking in your sleep - Lynn Anderson
TTITLE1=Louisiana Man - Charley Pride
TTITLE2=Wasted Days and Wasted Nights - Freddy Fender
TTITLE3=Peace In The Valley - Jim Reeves
TTITLE4=It' A Man's World - Dottie West
TTITLE5=Honky Tonk Merry-go-Round - Patsy Cline
TTITLE6=Coal Miner's Daughter - Loretta Lynn
TTITLE7=Havie I Told You Lately That I Love You - Jim Reeves
TTITLE8=You're My Man - Billy Jo Spears
TTITLE9=Sixteen Tons - Merle Travis
TTITLE10=Mule Train - Fronkie Laine
TTITLE11=Careless Hands - Jerry Lee Lewis
TTITLE12=There Goes My Everything - Anne Murray
TTITLE13=Send Me THe Pillow That You Dream On - Hank Locklin
TTITLE14=On The Road Again - Willie Nelson
TTITLE15=Crazy - Dottie West
EXTD=
EXTT0=
EXTT1=
EXTT2=
EXTT3=
EXTT4=
EXTT5=
EXTT6=
EXTT7=
EXTT8=
EXTT9=
EXTT10=
EXTT11=
EXTT12=
EXTT13=
EXTT14=
EXTT15=
PLAYORDER=
